<svg width="40" height="40" viewBox="0 0 40 40" fill="none" xmlns="http://www.w3.org/2000/svg">
<path d="M26.5499 19.0951L12.6174 5.82009C12.3849 5.59848 12.076 5.47485 11.7549 5.47485C11.4337 5.47485 11.1248 5.59848 10.8924 5.82009L10.8774 5.83509C10.7643 5.94253 10.6742 6.07184 10.6127 6.21517C10.5512 6.35851 10.5194 6.51286 10.5194 6.66884C10.5194 6.82482 10.5512 6.97918 10.6127 7.12251C10.6742 7.26584 10.7643 7.39516 10.8774 7.50259L23.9974 20.0026L10.8774 32.4976C10.7643 32.605 10.6742 32.7343 10.6127 32.8777C10.5512 33.021 10.5194 33.1754 10.5194 33.3313C10.5194 33.4873 10.5512 33.6417 10.6127 33.785C10.6742 33.9283 10.7643 34.0577 10.8774 34.1651L10.8924 34.1801C11.1248 34.4017 11.4337 34.5253 11.7549 34.5253C12.076 34.5253 12.3849 34.4017 12.6174 34.1801L26.5499 20.9051C26.6724 20.7883 26.7699 20.6479 26.8366 20.4924C26.9033 20.3368 26.9376 20.1693 26.9376 20.0001C26.9376 19.8308 26.9033 19.6634 26.8366 19.5078C26.7699 19.3522 26.6724 19.2118 26.5499 19.0951Z" fill="#B7B7B7"/>
</svg>
