<svg width="40" height="40" viewBox="0 0 40 40" fill="none" xmlns="http://www.w3.org/2000/svg">
<path d="M13.4501 20.9049L27.3826 34.1799C27.6151 34.4015 27.9239 34.5251 28.2451 34.5251C28.5663 34.5251 28.8751 34.4015 29.1076 34.1799L29.1226 34.1649C29.2357 34.0575 29.3257 33.9282 29.3873 33.7848C29.4488 33.6415 29.4805 33.4871 29.4805 33.3312C29.4805 33.1752 29.4488 33.0208 29.3873 32.8775C29.3257 32.7342 29.2357 32.6048 29.1226 32.4974L16.0026 19.9974L29.1226 7.50241C29.2357 7.39498 29.3257 7.26566 29.3873 7.12233C29.4488 6.97899 29.4805 6.82464 29.4805 6.66866C29.4805 6.51267 29.4488 6.35832 29.3873 6.21499C29.3257 6.07166 29.2357 5.94234 29.1226 5.83491L29.1076 5.81991C28.8751 5.5983 28.5663 5.47467 28.2451 5.47467C27.9239 5.47467 27.6151 5.5983 27.3826 5.81991L13.4501 19.0949C13.3276 19.2116 13.23 19.3521 13.1634 19.5076C13.0967 19.6632 13.0623 19.8307 13.0623 19.9999C13.0623 20.1691 13.0967 20.3366 13.1634 20.4922C13.23 20.6478 13.3276 20.7882 13.4501 20.9049Z" fill="#B7B7B7"/>
</svg>
