<svg width="85" height="28" viewBox="0 0 85 28" fill="none" xmlns="http://www.w3.org/2000/svg">
<path d="M0.582386 27V0.818181H10.6051C12.4972 0.818181 14.0696 1.11648 15.3224 1.71307C16.5838 2.30114 17.5256 3.10653 18.1477 4.12926C18.7784 5.15199 19.0938 6.31108 19.0938 7.60653C19.0938 8.67188 18.8892 9.58381 18.4801 10.3423C18.071 11.0923 17.5213 11.7017 16.831 12.1705C16.1406 12.6392 15.3693 12.9759 14.517 13.1804V13.4361C15.446 13.4872 16.3366 13.7727 17.1889 14.2926C18.0497 14.804 18.7528 15.5284 19.2983 16.4659C19.8438 17.4034 20.1165 18.5369 20.1165 19.8665C20.1165 21.2216 19.7884 22.4403 19.1321 23.5227C18.4759 24.5966 17.4872 25.4446 16.1662 26.0668C14.8452 26.6889 13.1832 27 11.1804 27H0.582386ZM5.32528 23.0369H10.4261C12.1477 23.0369 13.3878 22.7088 14.1463 22.0526C14.9134 21.3878 15.2969 20.5355 15.2969 19.4957C15.2969 18.7202 15.1051 18.0213 14.7216 17.3991C14.3381 16.7685 13.7926 16.2741 13.0852 15.9162C12.3778 15.5497 11.5341 15.3665 10.554 15.3665H5.32528V23.0369ZM5.32528 11.9531H10.017C10.8352 11.9531 11.5724 11.804 12.2287 11.5057C12.8849 11.1989 13.4006 10.7685 13.7756 10.2145C14.1591 9.65199 14.3509 8.98722 14.3509 8.22017C14.3509 7.20596 13.9929 6.37074 13.277 5.71449C12.5696 5.05824 11.517 4.73011 10.1193 4.73011H5.32528V11.9531ZM29.6886 27.3963C28.4442 27.3963 27.3235 27.1747 26.3263 26.7315C25.3377 26.2798 24.5536 25.6151 23.9741 24.7372C23.4031 23.8594 23.1175 22.777 23.1175 21.4901C23.1175 20.3821 23.3221 19.4659 23.7312 18.7415C24.1403 18.017 24.6985 17.4375 25.4059 17.0028C26.1133 16.5682 26.9102 16.2401 27.7965 16.0185C28.6914 15.7884 29.6161 15.6222 30.5707 15.5199C31.7212 15.4006 32.6545 15.294 33.3704 15.2003C34.0863 15.098 34.6062 14.9446 34.93 14.7401C35.2624 14.527 35.4286 14.1989 35.4286 13.7557V13.679C35.4286 12.7159 35.1431 11.9702 34.5721 11.4418C34.0011 10.9134 33.1786 10.6491 32.1048 10.6491C30.9712 10.6491 30.0721 10.8963 29.4073 11.3906C28.7511 11.8849 28.3079 12.4687 28.0778 13.142L23.7567 12.5284C24.0977 11.3352 24.6602 10.3381 25.4442 9.53693C26.2283 8.72727 27.1871 8.12216 28.3207 7.72159C29.4542 7.3125 30.707 7.10795 32.0792 7.10795C33.0252 7.10795 33.967 7.21875 34.9045 7.44034C35.842 7.66193 36.6985 8.02841 37.4741 8.53977C38.2496 9.04261 38.8718 9.72869 39.3406 10.598C39.8178 11.4673 40.0565 12.554 40.0565 13.858V27H35.6076V24.3026H35.4542C35.1729 24.848 34.7766 25.3594 34.2653 25.8366C33.7624 26.3054 33.1275 26.6847 32.3604 26.9744C31.6019 27.2557 30.7113 27.3963 29.6886 27.3963ZM30.8903 23.9957C31.8192 23.9957 32.6246 23.8125 33.3065 23.446C33.9883 23.071 34.5124 22.5767 34.8789 21.9631C35.2539 21.3494 35.4414 20.6804 35.4414 19.956V17.642C35.2965 17.7614 35.0494 17.8722 34.6999 17.9744C34.359 18.0767 33.9755 18.1662 33.5494 18.2429C33.1232 18.3196 32.7013 18.3878 32.2837 18.4474C31.8661 18.5071 31.5039 18.5582 31.1971 18.6009C30.5067 18.6946 29.8888 18.848 29.3434 19.0611C28.7979 19.2741 28.3675 19.5724 28.0522 19.956C27.7369 20.331 27.5792 20.8168 27.5792 21.4134C27.5792 22.2656 27.8903 22.9091 28.5124 23.3438C29.1346 23.7784 29.9272 23.9957 30.8903 23.9957ZM49.3377 15.4943V27H44.7099V7.36364H49.1332V10.7003H49.3633C49.815 9.60085 50.5352 8.72727 51.5238 8.07955C52.521 7.43182 53.7525 7.10795 55.2184 7.10795C56.5735 7.10795 57.7539 7.39773 58.7596 7.97727C59.7738 8.55682 60.5579 9.39631 61.1119 10.4957C61.6744 11.5952 61.9513 12.929 61.9428 14.4972V27H57.315V15.2131C57.315 13.9006 56.9741 12.8736 56.2923 12.1321C55.619 11.3906 54.6857 11.0199 53.4925 11.0199C52.6829 11.0199 51.9627 11.1989 51.332 11.5568C50.7099 11.9062 50.2198 12.4134 49.8619 13.0781C49.5124 13.7429 49.3377 14.5483 49.3377 15.4943ZM70.8661 20.8381L70.8533 15.2514H71.5948L78.6516 7.36364H84.0593L75.3789 17.0284H74.4201L70.8661 20.8381ZM66.6474 27V0.818181H71.2752V27H66.6474ZM78.9712 27L72.5792 18.0639L75.6985 14.804L84.5067 27H78.9712Z" fill="#2E7189"/>
</svg>
