<svg width="81" height="88" viewBox="0 0 81 88" fill="none" xmlns="http://www.w3.org/2000/svg">
<rect y="0.518555" width="80.4927" height="87" rx="23" fill="#FF735C"/>
<path d="M28.1139 29.6296C28.1139 29.6296 28.6952 26.3839 31.2058 26.3839H34.3162V25.5281C34.3162 25.1228 34.4791 24.7342 34.769 24.4476C35.0589 24.161 35.4521 24 35.8621 24H48.1801C48.5901 24 48.9834 24.161 49.2733 24.4476C49.5632 24.7342 49.7261 25.1228 49.7261 25.5281V26.3839H52.8488C53.2238 26.382 53.5946 26.4612 53.9354 26.6159C54.2761 26.7706 54.5785 26.997 54.8215 27.2794C55.3833 27.9606 55.7676 28.7676 55.9407 29.6296C55.9407 29.6296 56.9023 34.4341 57.7711 38.5478H54.8709L52.855 29.4188L31.1563 29.4065L29.1528 38.5448H26.2093L28.1139 29.6296ZM62.1244 44.6481C62.1244 45.4582 61.7991 46.2351 61.2199 46.8081C60.6408 47.3812 59.8551 47.7036 59.0357 47.7044L55.9438 59.8469C55.9438 59.8469 55.3625 63.0315 52.8519 63.0315H31.2089C28.6952 63.0315 28.117 59.8469 28.117 59.8469L24.9695 47.6952C24.1673 47.6646 23.4086 47.3264 22.8544 46.7523C22.3001 46.1782 21.9937 45.4134 22.0001 44.6198C22.0065 43.8263 22.3253 43.0664 22.8888 42.5011C23.4523 41.9359 24.2164 41.6098 25.019 41.5918H59.0295C59.8495 41.5918 60.6359 41.9139 61.2158 42.487C61.7956 43.0602 62.1213 43.8375 62.1213 44.6481M34.4059 57.3224L34.3966 53.8841L33.1908 49.1897C33.1615 48.9758 33.09 48.7697 32.9801 48.5831C32.8703 48.3965 32.7244 48.2331 32.5507 48.1023C32.377 47.9715 32.1789 47.8757 31.9678 47.8206C31.7567 47.7654 31.5366 47.7519 31.3202 47.7808C31.1038 47.8097 30.8952 47.8804 30.7065 47.989C30.5177 48.0976 30.3525 48.2418 30.2201 48.4135C30.0878 48.5852 29.9909 48.781 29.9351 48.9897C29.8793 49.1984 29.8656 49.4159 29.8948 49.6298L30.5318 53.8933L31.11 57.7656C31.1694 58.1976 31.4 58.5886 31.7511 58.8526C32.1022 59.1165 32.545 59.2318 32.9821 59.173C33.4191 59.1142 33.8147 58.8863 34.0817 58.5392C34.3487 58.1922 34.4653 57.7545 34.4059 57.3224ZM40.5896 49.3853C40.5896 49.1711 40.5469 48.9591 40.4639 48.7612C40.3809 48.5634 40.2592 48.3837 40.1058 48.2324C39.9525 48.0811 39.7704 47.9611 39.5701 47.8795C39.3699 47.7978 39.1552 47.7559 38.9386 47.7563H38.9076C38.7015 47.756 38.4974 47.7963 38.3073 47.875C38.1173 47.9538 37.945 48.0693 37.8007 48.2148C37.6395 48.3659 37.5112 48.5479 37.4234 48.7497C37.3357 48.9514 37.2905 49.1688 37.2906 49.3884V57.5792C37.2906 58.0116 37.4644 58.4263 37.7737 58.7321C38.0831 59.0379 38.5026 59.2097 38.9401 59.2097C39.3776 59.2097 39.7971 59.0379 40.1065 58.7321C40.4158 58.4263 40.5896 58.0116 40.5896 57.5792V49.3853ZM46.7672 49.3853C46.7663 49.0599 46.6666 48.7421 46.4808 48.4734C46.2949 48.2048 46.0317 47.9975 45.7252 47.8786C45.5332 47.7975 45.3265 47.7556 45.1176 47.7556C44.9088 47.7556 44.7021 47.7975 44.5101 47.8786C44.2036 47.9975 43.9403 48.2048 43.7545 48.4734C43.5687 48.7421 43.4689 49.0599 43.4681 49.3853V57.5761C43.4681 58.0085 43.6419 58.4233 43.9513 58.7291C44.2606 59.0348 44.6802 59.2066 45.1176 59.2066C45.5551 59.2066 45.9747 59.0348 46.284 58.7291C46.5934 58.4233 46.7672 58.0085 46.7672 57.5761V49.3853ZM54.1412 49.6298C54.1705 49.4161 54.1568 49.1988 54.1011 48.9903C54.0454 48.7818 53.9486 48.5861 53.8164 48.4146C53.6842 48.243 53.5191 48.0989 53.3306 47.9904C53.142 47.8819 52.9337 47.8112 52.7174 47.7823C52.5012 47.7534 52.2814 47.7669 52.0704 47.822C51.8595 47.8771 51.6616 47.9727 51.488 48.1034C51.3145 48.2341 51.1687 48.3973 51.0589 48.5837C50.9492 48.7701 50.8776 48.976 50.8484 49.1897L49.6395 53.8505L49.6333 57.3224C49.6039 57.5362 49.6173 57.7535 49.6729 57.9621C49.7284 58.1707 49.825 58.3664 49.957 58.5381C50.0891 58.7098 50.2541 58.8541 50.4426 58.9628C50.6311 59.0715 50.8394 59.1424 51.0556 59.1715C51.2718 59.2006 51.4917 59.1873 51.7027 59.1324C51.9137 59.0775 52.1117 58.982 52.2854 58.8515C52.4591 58.7209 52.6051 58.5578 52.715 58.3715C52.825 58.1852 52.8967 57.9793 52.9261 57.7656L54.1412 49.6298Z" fill="#F8F8F8"/>
</svg>
