<svg width="26" height="37" viewBox="0 0 26 37" fill="none" xmlns="http://www.w3.org/2000/svg">
<g filter="url(#filter0_d_2_95)">
<path d="M14 11.7448H21.5L20.6667 14.8357H14V28.7446H10.6667V14.8357H4V11.7448H10.6667V8.85174C10.6667 6.09623 10.9767 5.09634 11.5567 4.08871C12.125 3.09316 13.003 2.27903 14.0767 1.75202C15.1633 1.21421 16.2417 0.926758 19.2133 0.926758C20.0833 0.926758 20.8467 1.00403 21.5 1.15857V4.01762H19.2133C17.0067 4.01762 16.335 4.13817 15.6483 4.47816C15.1554 4.71694 14.7535 5.09023 14.4967 5.5476C14.13 6.18278 14 6.80559 14 8.85174V11.7448Z" fill="#545454"/>
</g>
<defs>
<filter id="filter0_d_2_95" x="0" y="0.926758" width="25.5" height="35.8179" filterUnits="userSpaceOnUse" color-interpolation-filters="sRGB">
<feFlood flood-opacity="0" result="BackgroundImageFix"/>
<feColorMatrix in="SourceAlpha" type="matrix" values="0 0 0 0 0 0 0 0 0 0 0 0 0 0 0 0 0 0 127 0" result="hardAlpha"/>
<feOffset dy="4"/>
<feGaussianBlur stdDeviation="2"/>
<feComposite in2="hardAlpha" operator="out"/>
<feColorMatrix type="matrix" values="0 0 0 0 0 0 0 0 0 0 0 0 0 0 0 0 0 0 0.25 0"/>
<feBlend mode="normal" in2="BackgroundImageFix" result="effect1_dropShadow_2_95"/>
<feBlend mode="normal" in="SourceGraphic" in2="effect1_dropShadow_2_95" result="shape"/>
</filter>
</defs>
</svg>
