<svg width="87" height="88" viewBox="0 0 87 88" fill="none" xmlns="http://www.w3.org/2000/svg">
<rect y="0.518555" width="87" height="87" rx="23" fill="#FF735C"/>
<path d="M42.0357 52.4617L39.9711 54.3499L43.7489 57.8183H25.9286V33.7134H23V57.8183C23 59.2954 24.3135 60.4966 25.9286 60.4966H43.7489L39.9711 63.9651L42.0357 65.8533L49.3571 59.1575L42.0357 52.4617Z" fill="#F8F8F8"/>
<path d="M36.1786 45.7657C36.9873 45.7657 37.6429 45.1662 37.6429 44.4266C37.6429 43.687 36.9873 43.0874 36.1786 43.0874C35.3699 43.0874 34.7144 43.687 34.7144 44.4266C34.7144 45.1662 35.3699 45.7657 36.1786 45.7657Z" fill="#F8F8F8"/>
<path d="M55.2146 49.7831H31.786C30.1709 49.7831 28.8574 48.5819 28.8574 47.1048V41.7481C28.8574 40.2711 30.1709 39.0698 31.786 39.0698H55.2146C56.8297 39.0698 58.1431 40.2711 58.1431 41.7481V47.1048C58.1431 48.5819 56.8297 49.7831 55.2146 49.7831ZM31.786 41.7481V47.1048H55.2146V41.7481H31.786Z" fill="#F8F8F8"/>
<path d="M61.0711 28.3567H43.2508L47.0286 24.8882L44.964 23L37.6426 29.6958L44.964 36.3916L47.0286 34.5034L43.2508 31.035H61.0711V55.1399H63.9997V31.035C63.9997 29.5592 62.6863 28.3567 61.0711 28.3567Z" fill="#F8F8F8"/>
</svg>
