<svg width="30" height="29" viewBox="0 0 30 29" fill="none" xmlns="http://www.w3.org/2000/svg">
<path d="M25.6233 28.0752H4.16667C3.0616 28.0752 2.00179 27.6682 1.22039 26.9436C0.438987 26.219 0 25.2363 0 24.2116V4.31573C0 3.29105 0.438987 2.30833 1.22039 1.58377C2.00179 0.859203 3.0616 0.452148 4.16667 0.452148H25.6233C26.7284 0.452148 27.7882 0.859203 28.5696 1.58377C29.351 2.30833 29.79 3.29105 29.79 4.31573V24.2116C29.79 25.2363 29.351 26.219 28.5696 26.9436C27.7882 27.6682 26.7284 28.0752 25.6233 28.0752ZM4.16667 1.99758C3.50363 1.99758 2.86774 2.24181 2.3989 2.67655C1.93006 3.11129 1.66667 3.70092 1.66667 4.31573V24.2116C1.66667 24.8265 1.93006 25.4161 2.3989 25.8508C2.86774 26.2856 3.50363 26.5298 4.16667 26.5298H25.6233C26.2864 26.5298 26.9223 26.2856 27.3911 25.8508C27.8599 25.4161 28.1233 24.8265 28.1233 24.2116V4.31573C28.1233 3.70092 27.8599 3.11129 27.3911 2.67655C26.9223 2.24181 26.2864 1.99758 25.6233 1.99758H4.16667Z" fill="#545454"/>
<path d="M14.8951 21.3637C13.3807 21.3621 11.9008 20.9443 10.6424 20.163C9.38407 19.3817 8.40378 18.272 7.82547 16.9742C7.24715 15.6764 7.09678 14.2488 7.39335 12.8717C7.68993 11.4947 8.42013 10.2301 9.49167 9.23777C10.5632 8.24548 11.928 7.57004 13.4134 7.29683C14.8989 7.02363 16.4383 7.16493 17.8372 7.70287C19.236 8.24081 20.4315 9.15124 21.2725 10.3191C22.1134 11.4869 22.5621 12.8597 22.5617 14.2639C22.5591 16.1478 21.7502 17.9536 20.3127 19.2848C18.8752 20.616 16.9267 21.3637 14.8951 21.3637ZM14.8951 8.70038C13.7107 8.70191 12.5535 9.02886 11.5694 9.63993C10.5854 10.251 9.81869 11.1188 9.36623 12.1337C8.91376 13.1485 8.79581 14.265 9.02727 15.342C9.25872 16.419 9.8292 17.4082 10.6667 18.1848C11.5041 18.9613 12.5709 19.4903 13.7324 19.7049C14.8939 19.9195 16.098 19.8102 17.1925 19.3906C18.287 18.9711 19.2228 18.2602 19.8818 17.3477C20.5408 16.4352 20.8934 15.3621 20.8951 14.2639C20.8951 12.7884 20.2629 11.3733 19.1377 10.3299C18.0125 9.28654 16.4864 8.70038 14.8951 8.70038Z" fill="#545454"/>
<path d="M23.5617 7.93499C24.5512 7.93499 25.3534 7.19118 25.3534 6.27365C25.3534 5.35611 24.5512 4.6123 23.5617 4.6123C22.5722 4.6123 21.77 5.35611 21.77 6.27365C21.77 7.19118 22.5722 7.93499 23.5617 7.93499Z" fill="#545454"/>
</svg>
