<svg width="81" height="88" viewBox="0 0 81 88" fill="none" xmlns="http://www.w3.org/2000/svg">
<rect y="0.518555" width="80.4927" height="87" rx="23" fill="#FF735C"/>
<path d="M36.5283 48.8371L32.2475 44.6055L29.917 46.9092L36.5283 53.4444L49.751 40.374L47.4205 38.0703L36.5283 48.8371Z" fill="#F8F8F8"/>
<path d="M39.834 70.7465L29.6261 65.3664C26.716 63.8361 24.2825 61.5513 22.5866 58.7572C20.8907 55.9632 19.9965 52.7654 20 49.5071V28.2676C20.0009 27.4013 20.3494 26.5706 20.9692 25.958C21.5889 25.3454 22.4292 25.0009 23.3057 25H56.3624C57.2389 25.0009 58.0792 25.3454 58.6989 25.958C59.3186 26.5706 59.6672 27.4013 59.6681 28.2676V49.5071C59.6716 52.7654 58.7774 55.9632 57.0815 58.7572C55.3856 61.5513 52.9521 63.8361 50.042 65.3664L39.834 70.7465ZM23.3057 28.2676V49.5071C23.3029 52.1731 24.0348 54.7896 25.4226 57.0756C26.8104 59.3616 28.8018 61.2309 31.1831 62.4827L39.834 67.0427L48.485 62.4844C50.8665 61.2324 52.8581 59.3629 54.2459 57.0765C55.6338 54.7902 56.3654 52.1734 56.3624 49.5071V28.2676H23.3057Z" fill="#F8F8F8"/>
</svg>
