<svg width="11" height="19" viewBox="0 0 11 19" fill="none" xmlns="http://www.w3.org/2000/svg">
<path d="M0.25216 10.0346L9.31268 18.6676C9.46386 18.8117 9.66471 18.8921 9.87358 18.8921C10.0824 18.8921 10.2833 18.8117 10.4345 18.6676L10.4442 18.6578C10.5178 18.588 10.5763 18.5039 10.6163 18.4106C10.6564 18.3174 10.677 18.2171 10.677 18.1156C10.677 18.0142 10.6564 17.9138 10.6163 17.8206C10.5763 17.7274 10.5178 17.6433 10.4442 17.5734L1.91209 9.44448L10.4442 1.31879C10.5178 1.24892 10.5763 1.16482 10.6163 1.07161C10.6564 0.9784 10.677 0.878024 10.677 0.776586C10.677 0.675147 10.6564 0.574771 10.6163 0.481559C10.5763 0.388347 10.5178 0.304252 10.4442 0.234386L10.4345 0.22463C10.2833 0.0805122 10.0824 0.000115567 9.87358 0.000115567C9.66471 0.000115567 9.46386 0.0805122 9.31268 0.22463L0.25216 8.85757C0.172477 8.93349 0.10904 9.0248 0.0656951 9.12596C0.0223503 9.22713 0 9.33604 0 9.4461C0 9.55616 0.0223503 9.66508 0.0656951 9.76624C0.10904 9.86741 0.172477 9.95872 0.25216 10.0346Z" fill="#BEBCBC"/>
</svg>
